<mxfile host="app.diagrams.net" modified="2021-09-27T07:23:26.175Z" agent="5.0 (Windows NT 10.0; Win64; x64) AppleWebKit/537.36 (KHTML, like Gecko) Chrome/94.0.4606.61 Safari/537.36" etag="WJdL6mgjs6_xeZE_9Yww" version="15.3.4" type="github">
  <diagram id="KMDa0xsC3Y7HKLWc3JA5" name="Page-1">
    <mxGraphModel dx="782" dy="428" grid="1" gridSize="10" guides="1" tooltips="1" connect="1" arrows="1" fold="1" page="1" pageScale="1" pageWidth="850" pageHeight="1100" math="0" shadow="0">
      <root>
        <mxCell id="0" />
        <mxCell id="1" parent="0" />
        <mxCell id="Hzs0d0QzniYn16yWbCv_-2" value="PLAYER" style="rounded=0;whiteSpace=wrap;html=1;hachureGap=4;pointerEvents=0;" vertex="1" parent="1">
          <mxGeometry x="550" y="120" width="120" height="60" as="geometry" />
        </mxCell>
        <mxCell id="Hzs0d0QzniYn16yWbCv_-3" value="TEAM" style="rounded=0;whiteSpace=wrap;html=1;hachureGap=4;pointerEvents=0;" vertex="1" parent="1">
          <mxGeometry x="130" y="120" width="120" height="60" as="geometry" />
        </mxCell>
        <mxCell id="oC01IYO5TTKNZIlv1L7a-1" style="edgeStyle=none;curved=1;rounded=0;orthogonalLoop=1;jettySize=auto;html=1;exitX=1;exitY=0;exitDx=0;exitDy=0;entryX=0.25;entryY=1;entryDx=0;entryDy=0;endArrow=open;startSize=14;endSize=14;sourcePerimeterSpacing=8;targetPerimeterSpacing=8;" edge="1" parent="1" source="Hzs0d0QzniYn16yWbCv_-4" target="Hzs0d0QzniYn16yWbCv_-3">
          <mxGeometry relative="1" as="geometry" />
        </mxCell>
        <mxCell id="Hzs0d0QzniYn16yWbCv_-4" value="&lt;u&gt;t_name&lt;/u&gt;" style="ellipse;whiteSpace=wrap;html=1;hachureGap=4;pointerEvents=0;" vertex="1" parent="1">
          <mxGeometry x="50" y="240" width="80" height="40" as="geometry" />
        </mxCell>
        <mxCell id="oC01IYO5TTKNZIlv1L7a-6" style="edgeStyle=none;curved=1;rounded=0;orthogonalLoop=1;jettySize=auto;html=1;exitX=0.5;exitY=0;exitDx=0;exitDy=0;entryX=0.5;entryY=1;entryDx=0;entryDy=0;endArrow=open;startSize=14;endSize=14;sourcePerimeterSpacing=8;targetPerimeterSpacing=8;" edge="1" parent="1" source="oC01IYO5TTKNZIlv1L7a-2" target="Hzs0d0QzniYn16yWbCv_-3">
          <mxGeometry relative="1" as="geometry" />
        </mxCell>
        <mxCell id="oC01IYO5TTKNZIlv1L7a-2" value="city" style="ellipse;whiteSpace=wrap;html=1;hachureGap=4;pointerEvents=0;" vertex="1" parent="1">
          <mxGeometry x="140" y="240" width="70" height="40" as="geometry" />
        </mxCell>
        <mxCell id="oC01IYO5TTKNZIlv1L7a-5" style="edgeStyle=none;curved=1;rounded=0;orthogonalLoop=1;jettySize=auto;html=1;exitX=0.5;exitY=0;exitDx=0;exitDy=0;entryX=0.75;entryY=1;entryDx=0;entryDy=0;endArrow=open;startSize=14;endSize=14;sourcePerimeterSpacing=8;targetPerimeterSpacing=8;" edge="1" parent="1" source="oC01IYO5TTKNZIlv1L7a-4" target="Hzs0d0QzniYn16yWbCv_-3">
          <mxGeometry relative="1" as="geometry" />
        </mxCell>
        <mxCell id="oC01IYO5TTKNZIlv1L7a-4" value="coach" style="ellipse;whiteSpace=wrap;html=1;hachureGap=4;pointerEvents=0;" vertex="1" parent="1">
          <mxGeometry x="220" y="240" width="65" height="40" as="geometry" />
        </mxCell>
      </root>
    </mxGraphModel>
  </diagram>
</mxfile>
